<svg width="1024" height="1024" viewBox="0 0 1024 1024" fill="none" xmlns="http://www.w3.org/2000/svg">
  <defs>
    <linearGradient id="bg" x1="120" y1="80" x2="900" y2="944" gradientUnits="userSpaceOnUse">
      <stop stop-color="#FF7AA2"/>
      <stop offset="1" stop-color="#E23867"/>
    </linearGradient>
    <linearGradient id="box" x1="200" y1="250" x2="824" y2="824" gradientUnits="userSpaceOnUse">
      <stop stop-color="#FFF7FA"/>
      <stop offset="1" stop-color="#FFD8E5"/>
    </linearGradient>
    <linearGradient id="lid" x1="176" y1="210" x2="848" y2="430" gradientUnits="userSpaceOnUse">
      <stop stop-color="#FFEAF1"/>
      <stop offset="1" stop-color="#FFC3D6"/>
    </linearGradient>
    <filter id="shadow" x="120" y="120" width="784" height="784" filterUnits="userSpaceOnUse" color-interpolation-filters="sRGB">
      <feDropShadow dx="0" dy="28" stdDeviation="30" flood-color="#8F1D44" flood-opacity="0.22"/>
    </filter>
  </defs>

  <rect x="64" y="64" width="896" height="896" rx="220" fill="url(#bg)"/>
  <circle cx="300" cy="250" r="120" fill="#FFFFFF" fill-opacity="0.14"/>
  <circle cx="784" cy="760" r="150" fill="#FFFFFF" fill-opacity="0.08"/>

  <g filter="url(#shadow)">
    <rect x="220" y="418" width="584" height="286" rx="54" fill="url(#box)"/>
    <rect x="176" y="332" width="672" height="132" rx="48" fill="url(#lid)"/>
    <rect x="470" y="256" width="84" height="448" rx="38" fill="#FF4F7B"/>
    <rect x="220" y="470" width="584" height="72" rx="32" fill="#FF4F7B"/>

    <path d="M512 260C512 194 554 156 610 156C658 156 694 188 694 232C694 274 662 300 622 300H512V260Z" fill="#FF4F7B"/>
    <path d="M512 260C512 194 470 156 414 156C366 156 330 188 330 232C330 274 362 300 402 300H512V260Z" fill="#FF4F7B"/>
    <path d="M512 322C512 270 548 238 596 238C632 238 660 262 660 294C660 326 636 348 598 348H512V322Z" fill="#FFD8E5"/>
    <path d="M512 322C512 270 476 238 428 238C392 238 364 262 364 294C364 326 388 348 426 348H512V322Z" fill="#FFD8E5"/>
  </g>
</svg>